<mxfile host="app.diagrams.net" modified="2021-07-08T12:38:58.539Z" agent="5.0 (Windows NT 6.1; Win64; x64) AppleWebKit/537.36 (KHTML, like Gecko) Chrome/91.0.4472.114 Safari/537.36" etag="pH4aIXsuSK0E6iW9eqbY" version="14.8.5" type="github">
  <diagram id="9pg7yUOmjRhY6YWMFo2P" name="Page-1">
    <mxGraphModel dx="868" dy="450" grid="1" gridSize="10" guides="1" tooltips="1" connect="1" arrows="1" fold="1" page="1" pageScale="1" pageWidth="827" pageHeight="1169" math="0" shadow="0">
      <root>
        <mxCell id="0" />
        <mxCell id="1" parent="0" />
        <mxCell id="_V0R72cqGEQBHATyXSoc-5" value="" style="rounded=0;whiteSpace=wrap;html=1;" vertex="1" parent="1">
          <mxGeometry x="30" y="50" width="180" height="190" as="geometry" />
        </mxCell>
        <mxCell id="_V0R72cqGEQBHATyXSoc-2" value="1" style="rounded=1;whiteSpace=wrap;html=1;fillColor=#dae8fc;strokeColor=#6c8ebf;" vertex="1" parent="1">
          <mxGeometry x="70" y="80" width="100" height="40" as="geometry" />
        </mxCell>
        <mxCell id="_V0R72cqGEQBHATyXSoc-3" value="1" style="rounded=1;whiteSpace=wrap;html=1;" vertex="1" parent="1">
          <mxGeometry x="70" y="130" width="100" height="40" as="geometry" />
        </mxCell>
        <mxCell id="_V0R72cqGEQBHATyXSoc-4" value="2" style="rounded=1;whiteSpace=wrap;html=1;" vertex="1" parent="1">
          <mxGeometry x="70" y="180" width="100" height="40" as="geometry" />
        </mxCell>
        <mxCell id="_V0R72cqGEQBHATyXSoc-12" style="edgeStyle=orthogonalEdgeStyle;rounded=0;orthogonalLoop=1;jettySize=auto;html=1;exitX=1;exitY=0.5;exitDx=0;exitDy=0;" edge="1" parent="1" source="_V0R72cqGEQBHATyXSoc-6" target="_V0R72cqGEQBHATyXSoc-11">
          <mxGeometry relative="1" as="geometry" />
        </mxCell>
        <mxCell id="_V0R72cqGEQBHATyXSoc-6" value="" style="rounded=0;whiteSpace=wrap;html=1;" vertex="1" parent="1">
          <mxGeometry x="260" y="90" width="120" height="60" as="geometry" />
        </mxCell>
        <mxCell id="_V0R72cqGEQBHATyXSoc-8" value="" style="rounded=1;whiteSpace=wrap;html=1;" vertex="1" parent="1">
          <mxGeometry x="70" y="310" width="120" height="60" as="geometry" />
        </mxCell>
        <mxCell id="_V0R72cqGEQBHATyXSoc-9" value="" style="ellipse;whiteSpace=wrap;html=1;fillColor=#dae8fc;strokeColor=#6c8ebf;" vertex="1" parent="1">
          <mxGeometry x="430" y="40" width="120" height="80" as="geometry" />
        </mxCell>
        <mxCell id="_V0R72cqGEQBHATyXSoc-10" value="" style="ellipse;whiteSpace=wrap;html=1;" vertex="1" parent="1">
          <mxGeometry x="80" y="400" width="120" height="80" as="geometry" />
        </mxCell>
        <mxCell id="_V0R72cqGEQBHATyXSoc-11" value="" style="ellipse;whiteSpace=wrap;html=1;" vertex="1" parent="1">
          <mxGeometry x="414" y="300" width="120" height="80" as="geometry" />
        </mxCell>
      </root>
    </mxGraphModel>
  </diagram>
</mxfile>
